<svg xmlns="http://www.w3.org/2000/svg" viewBox="0 0 500 500">
  <style>
    .primary { fill: #1e40af; }
    .secondary { fill: #ef4444; }
    .white { fill: #ffffff; }
  </style>
  <g>
    <!-- Medical Cap -->
    <path class="primary" d="M250 100 L350 150 L350 200 L150 200 L150 150 Z"/>
    <rect class="white" x="240" y="120" width="20" height="20"/>
    
    <!-- Face -->
    <path class="primary" d="M200 200 L300 200 L300 300 L200 300 Z"/>
    <circle class="white" cx="250" cy="240" r="15"/>
    <path class="white" d="M230 260 L270 260 L270 280 L230 280 Z"/>
    
    <!-- Crossed Sticks -->
    <g transform="rotate(45, 250, 350)">
      <rect class="primary" x="150" y="340" width="200" height="20" rx="10"/>
      <rect class="primary" x="240" y="250" width="20" height="200" rx="10"/>
    </g>
    
    <!-- Virus Symbol -->
    <circle class="secondary" cx="250" cy="350" r="30"/>
    <g transform="translate(250, 350)">
      <g transform="rotate(0)">
        <rect class="secondary" x="-5" y="-40" width="10" height="20" rx="5"/>
      </g>
      <g transform="rotate(45)">
        <rect class="secondary" x="-5" y="-40" width="10" height="20" rx="5"/>
      </g>
      <g transform="rotate(90)">
        <rect class="secondary" x="-5" y="-40" width="10" height="20" rx="5"/>
      </g>
      <g transform="rotate(135)">
        <rect class="secondary" x="-5" y="-40" width="10" height="20" rx="5"/>
      </g>
      <g transform="rotate(180)">
        <rect class="secondary" x="-5" y="-40" width="10" height="20" rx="5"/>
      </g>
      <g transform="rotate(225)">
        <rect class="secondary" x="-5" y="-40" width="10" height="20" rx="5"/>
      </g>
      <g transform="rotate(270)">
        <rect class="secondary" x="-5" y="-40" width="10" height="20" rx="5"/>
      </g>
      <g transform="rotate(315)">
        <rect class="secondary" x="-5" y="-40" width="10" height="20" rx="5"/>
      </g>
    </g>
  </g>
</svg>
